<svg xmlns="http://www.w3.org/2000/svg" xmlns:xlink="http://www.w3.org/1999/xlink" width="180.452" height="52.85" viewBox="0 0 180.452 52.85"><defs><style>.a{fill:#fff;}.b{fill:#a6a6a6;}.c{fill:url(#a);}</style><linearGradient id="a" x1="-1.559" y1="3.462" x2="-1.559" y2="3.387" gradientUnits="objectBoundingBox"><stop offset="0" stop-color="#1a1a1a" stop-opacity="0.102"/><stop offset="0.123" stop-color="#212121" stop-opacity="0.153"/><stop offset="0.308" stop-color="#353535" stop-opacity="0.227"/><stop offset="0.532" stop-color="#575757" stop-opacity="0.318"/><stop offset="0.783" stop-color="#858585" stop-opacity="0.42"/><stop offset="1" stop-color="#b3b3b3" stop-opacity="0.51"/></linearGradient></defs><path class="a" d="M188.745,56.115a5.092,5.092,0,0,1-5.128,5.062H15.815a5.1,5.1,0,0,1-5.134-5.062V15.748a5.105,5.105,0,0,1,5.134-5.068h167.8a5.1,5.1,0,0,1,5.128,5.068Z" transform="translate(-9.491 -9.504)"/><path class="b" d="M174.127,52.85H6.325A6.289,6.289,0,0,1,0,46.611V6.246A6.293,6.293,0,0,1,6.325,0h167.8a6.3,6.3,0,0,1,6.325,6.246V46.611a6.288,6.288,0,0,1-6.323,6.239Z"/><path d="M188.745,56.115a5.092,5.092,0,0,1-5.128,5.062H15.815a5.1,5.1,0,0,1-5.134-5.062V15.748a5.105,5.105,0,0,1,5.134-5.068h167.8a5.1,5.1,0,0,1,5.128,5.068Z" transform="translate(-9.491 -9.504)"/><path class="a" d="M176.689,92.534a7.655,7.655,0,0,1,3.693-6.428,7.973,7.973,0,0,0-6.254-3.341c-2.631-.274-5.182,1.556-6.523,1.556-1.367,0-3.43-1.529-5.655-1.484a8.34,8.34,0,0,0-7.008,4.224c-3.03,5.185-.77,12.8,2.133,16.995,1.452,2.054,3.15,4.344,5.371,4.264,2.173-.087,2.985-1.368,5.608-1.368,2.6,0,3.361,1.368,5.626,1.316,2.333-.036,3.8-2.062,5.2-4.133a16.854,16.854,0,0,0,2.379-4.788A7.426,7.426,0,0,1,176.689,92.534Zm-4.28-12.526a7.483,7.483,0,0,0,1.747-5.4,7.8,7.8,0,0,0-5.026,2.569,7.124,7.124,0,0,0-1.792,5.2,6.451,6.451,0,0,0,5.072-2.37Z" transform="translate(-136.396 -66.388)"/><path class="c" d="M845.8,0h-89.88l35.2,52.85H845.8a6.293,6.293,0,0,0,6.325-6.243V6.246A6.294,6.294,0,0,0,845.8,0Z" transform="translate(-671.669)"/><g transform="translate(56.746 23.788)"><path class="a" d="M524.186,233.838h-3.037l-1.664-5.166H513.7l-1.585,5.166H509.16l5.731-17.588h3.539Zm-5.2-7.334-1.5-4.593q-.239-.7-.9-3.313h-.053q-.265,1.122-.845,3.313L514.2,226.5Zm19.911.837a7.13,7.13,0,0,1-1.779,5.113,5.245,5.245,0,0,1-3.956,1.671,3.974,3.974,0,0,1-3.664-1.8v6.654h-2.851V225.324q0-2.032-.105-4.168h2.508l.159,2.01h.053a5.108,5.108,0,0,1,8.119-.5A6.959,6.959,0,0,1,538.895,227.341Zm-2.9.1a5.183,5.183,0,0,0-.845-3.054,2.932,2.932,0,0,0-2.482-1.251,2.986,2.986,0,0,0-1.914.691,3.2,3.2,0,0,0-1.122,1.815,3.643,3.643,0,0,0-.132.858v2.116a3.37,3.37,0,0,0,.859,2.337,2.866,2.866,0,0,0,2.231.953,2.933,2.933,0,0,0,2.508-1.226A5.351,5.351,0,0,0,535.99,227.444Zm17.666-.1a7.131,7.131,0,0,1-1.779,5.113,5.248,5.248,0,0,1-3.957,1.671,3.974,3.974,0,0,1-3.664-1.8v6.654H541.4V225.324q0-2.032-.106-4.168h2.508l.159,2.01h.054a5.11,5.11,0,0,1,8.121-.5A6.966,6.966,0,0,1,553.655,227.341Zm-2.906.1a5.182,5.182,0,0,0-.847-3.054,2.927,2.927,0,0,0-2.479-1.251,3,3,0,0,0-1.917.691,3.2,3.2,0,0,0-1.121,1.815,3.721,3.721,0,0,0-.134.858v2.116a3.381,3.381,0,0,0,.857,2.337,2.872,2.872,0,0,0,2.233.953,2.931,2.931,0,0,0,2.508-1.226A5.351,5.351,0,0,0,550.749,227.444Zm19.41,1.46a4.673,4.673,0,0,1-1.582,3.654,7.067,7.067,0,0,1-4.848,1.54,8.542,8.542,0,0,1-4.609-1.1l.659-2.349a8,8,0,0,0,4.119,1.1,3.92,3.92,0,0,0,2.508-.718,2.334,2.334,0,0,0,.9-1.916,2.441,2.441,0,0,0-.741-1.8,6.89,6.89,0,0,0-2.455-1.356q-4.674-1.723-4.676-5.038a4.427,4.427,0,0,1,1.651-3.549,6.576,6.576,0,0,1,4.371-1.384,8.724,8.724,0,0,1,4.04.835l-.716,2.3a7.133,7.133,0,0,0-3.42-.809,3.506,3.506,0,0,0-2.359.731,2.081,2.081,0,0,0-.716,1.594,2.144,2.144,0,0,0,.82,1.722,9.274,9.274,0,0,0,2.586,1.356,8.78,8.78,0,0,1,3.38,2.138A4.424,4.424,0,0,1,570.159,228.9Zm9.451-5.634h-3.143v6.157q0,2.349,1.664,2.347a5.07,5.07,0,0,0,1.266-.131l.079,2.14a6.528,6.528,0,0,1-2.217.312,3.439,3.439,0,0,1-2.641-1.019,4.955,4.955,0,0,1-.951-3.419v-6.393h-1.872v-2.115h1.872v-2.322l2.8-.835v3.157h3.143Zm14.152,4.122a6.907,6.907,0,0,1-1.69,4.8,6.061,6.061,0,0,1-4.7,1.931,5.777,5.777,0,0,1-4.5-1.85,6.7,6.7,0,0,1-1.677-4.671,6.852,6.852,0,0,1,1.729-4.827,6.03,6.03,0,0,1,4.662-1.879,5.9,5.9,0,0,1,4.541,1.853,6.61,6.61,0,0,1,1.638,4.642Zm-2.956.065a5.626,5.626,0,0,0-.764-2.992,2.828,2.828,0,0,0-2.563-1.51,2.869,2.869,0,0,0-2.615,1.51,5.72,5.72,0,0,0-.765,3.045,5.611,5.611,0,0,0,.765,2.994,2.941,2.941,0,0,0,5.153-.025A5.649,5.649,0,0,0,590.807,227.457Zm12.228-3.823a5.01,5.01,0,0,0-.9-.078,2.7,2.7,0,0,0-2.324,1.123,4.2,4.2,0,0,0-.712,2.5v6.654h-2.851V225.15q0-2.191-.083-3.993h2.484l.1,2.426h.079a4.352,4.352,0,0,1,1.426-2.01,3.475,3.475,0,0,1,2.061-.679,4.618,4.618,0,0,1,.713.052Zm12.752,3.263a6.535,6.535,0,0,1-.1,1.278h-8.554a3.659,3.659,0,0,0,1.241,2.873,4.277,4.277,0,0,0,2.8.885,9.562,9.562,0,0,0,3.461-.6l.447,1.955a10.812,10.812,0,0,1-4.3.784,6.279,6.279,0,0,1-4.689-1.734,6.367,6.367,0,0,1-1.7-4.657,7.209,7.209,0,0,1,1.586-4.774,5.491,5.491,0,0,1,4.487-2.034,4.8,4.8,0,0,1,4.2,2.034A6.785,6.785,0,0,1,615.787,226.9Zm-2.719-.731a3.779,3.779,0,0,0-.554-2.166,2.5,2.5,0,0,0-2.271-1.176,2.714,2.714,0,0,0-2.27,1.148,4.178,4.178,0,0,0-.844,2.191Z" transform="translate(-509.16 -215.99)"/></g><g transform="translate(57.808 8.661)"><path class="a" d="M526.075,87.729h-1.494l-.817-2.539h-2.842l-.78,2.539h-1.454l2.816-8.645h1.739Zm-2.557-3.6-.74-2.257c-.078-.231-.221-.769-.441-1.628h-.027c-.091.371-.221.911-.416,1.628l-.726,2.257Zm9.6-2.629-2.389,6.233h-1.363L527.055,81.5h1.506l1.078,3.3c.182.551.337,1.077.453,1.577h.039c.1-.448.259-.974.453-1.577l1.065-3.3Zm5.085,6.233-.1-.718h-.039a2.16,2.16,0,0,1-1.843.859,1.826,1.826,0,0,1-1.934-1.834c0-1.538,1.349-2.334,3.686-2.334v-.115c0-.821-.441-1.232-1.311-1.232a2.971,2.971,0,0,0-1.648.463l-.285-.911a4.075,4.075,0,0,1,2.168-.539c1.648,0,2.48.859,2.48,2.578v2.3a9.157,9.157,0,0,0,.091,1.488Zm-.2-3.1c-1.558,0-2.336.373-2.336,1.257a.888.888,0,0,0,.96.974,1.335,1.335,0,0,0,1.376-1.269v-.962Zm4.487-4.155a.828.828,0,1,1,.883-.834A.819.819,0,0,1,542.494,80.469Zm.728,7.26h-1.4V81.5h1.4Zm3.892,0h-1.4V78.636h1.4Zm5.957,0-.1-.718h-.039a2.16,2.16,0,0,1-1.843.859,1.826,1.826,0,0,1-1.934-1.834c0-1.538,1.349-2.334,3.686-2.334v-.115c0-.821-.441-1.232-1.311-1.232a2.971,2.971,0,0,0-1.648.463l-.286-.912a4.075,4.075,0,0,1,2.168-.539c1.648,0,2.479.859,2.479,2.578v2.3a9.49,9.49,0,0,0,.09,1.488H553.07Zm-.2-3.1c-1.558,0-2.336.373-2.336,1.257a.888.888,0,0,0,.96.974,1.335,1.335,0,0,0,1.376-1.269Zm7.043,3.246a2.146,2.146,0,0,1-1.984-1.1h-.028l-.08.962h-1.194c.039-.5.052-1.065.052-1.68V78.636h1.4v3.772h.027a2.17,2.17,0,0,1,2.011-1.039c1.519,0,2.584,1.283,2.584,3.155,0,1.935-1.182,3.346-2.791,3.346Zm-.285-5.413a1.6,1.6,0,0,0-1.545,1.655V85.2a1.535,1.535,0,0,0,1.521,1.565c1.05,0,1.674-.846,1.674-2.193,0-1.257-.651-2.117-1.65-2.117Zm6.549,5.272h-1.4V78.636h1.4Zm7.63-2.783H569.6a1.8,1.8,0,0,0,1.986,1.846,4.783,4.783,0,0,0,1.7-.295l.218.962a5.313,5.313,0,0,1-2.114.385,2.911,2.911,0,0,1-3.141-3.141,3.058,3.058,0,0,1,2.984-3.348c1.609,0,2.623,1.18,2.623,2.963a2.582,2.582,0,0,1-.047.628Zm-1.285-.987c0-.962-.494-1.641-1.39-1.641a1.653,1.653,0,0,0-1.533,1.641Zm9.78,3.912a2.982,2.982,0,0,1-3.037-3.206,3.052,3.052,0,0,1,3.143-3.3,2.959,2.959,0,0,1,3.037,3.194A3.071,3.071,0,0,1,582.307,87.87Zm.053-5.49c-1.012,0-1.661.936-1.661,2.244,0,1.283.662,2.219,1.648,2.219s1.646-1,1.646-2.245c0-1.269-.647-2.218-1.633-2.218Zm10.624,5.349h-1.4V84.15c0-1.1-.428-1.655-1.272-1.655a1.446,1.446,0,0,0-1.4,1.526v3.707h-1.4V83.277c0-.551-.015-1.142-.052-1.783h1.233l.066.962h.039a2.269,2.269,0,0,1,2-1.09c1.323,0,2.192,1,2.192,2.629v3.734Zm9.171-5.194h-1.542v3.026q0,1.156.816,1.155a2.805,2.805,0,0,0,.623-.065l.039,1.052a3.156,3.156,0,0,1-1.089.155c-1.1,0-1.764-.6-1.764-2.181V82.535h-.92V81.5h.92V80.354l1.375-.411v1.552h1.542Zm7.423,5.194h-1.4V84.176c0-1.115-.428-1.68-1.272-1.68a1.364,1.364,0,0,0-1.4,1.475v3.757h-1.4V78.636h1.4V82.38h.027a2.129,2.129,0,0,1,1.9-1.014c1.336,0,2.153,1.026,2.153,2.655Zm7.162-2.783h-4.206a1.8,1.8,0,0,0,1.985,1.846,4.777,4.777,0,0,0,1.7-.295l.219.962a5.321,5.321,0,0,1-2.116.385A2.911,2.911,0,0,1,611.18,84.7a3.058,3.058,0,0,1,2.984-3.348c1.609,0,2.623,1.18,2.623,2.963A2.663,2.663,0,0,1,616.74,84.945Zm-1.285-.987c0-.962-.492-1.641-1.388-1.641a1.652,1.652,0,0,0-1.533,1.641Z" transform="translate(-518.688 -78.636)"/></g></svg>