<svg xmlns="http://www.w3.org/2000/svg" xmlns:xlink="http://www.w3.org/1999/xlink" width="526" height="93" viewBox="0 0 526 93"><defs><style>.a{fill:#2e1963;}.b{clip-path:url(#a);}.c{opacity:0.5;}.d,.e{fill:none;stroke-miterlimit:10;}.d{stroke:#3738ae;}.e{stroke:#f9ab22;}</style><clipPath id="a"><rect class="a" width="526" height="93"/></clipPath></defs><g class="b"><path class="a" d="M0,0H526.594V92.652H0Z" transform="translate(-0.426 0)"/><g class="c" transform="translate(252.649 -29.908)"><g transform="translate(15.329 38.174)"><path class="d" d="M124.14,132.1l-22.632,33.255a10.635,10.635,0,0,1-8.763,4.785h-14.3l-.094-.076L103.888,132.1Z" transform="translate(-78.353 -132.098)"/><path class="d" d="M207.831,163.544,182.484,201.23H162.109l22.526-33.1a10.981,10.981,0,0,1,9.048-4.941h13.7Z" transform="translate(-133.579 -151.777)"/></g><g transform="translate(77.324)"><path class="d" d="M306.14,28.1,283.508,61.353a10.635,10.635,0,0,1-8.764,4.785h-14.3l-.094-.076L285.888,28.1Z" transform="translate(-260.353 -28.098)"/><path class="d" d="M389.831,59.544,364.484,97.23H344.109l22.526-33.1a10.981,10.981,0,0,1,9.048-4.941h13.7Z" transform="translate(-315.579 -47.777)"/></g><g transform="translate(170.317)"><path class="d" d="M579.14,28.1,556.508,61.353a10.635,10.635,0,0,1-8.763,4.785h-14.3l-.094-.076L558.888,28.1Z" transform="translate(-533.353 -28.098)"/><path class="d" d="M662.831,59.544,637.484,97.23H617.109l22.526-33.1a10.981,10.981,0,0,1,9.048-4.941h13.7Z" transform="translate(-588.579 -47.777)"/></g><g transform="translate(0 114.156)"><path class="d" d="M79.14,339.1,56.508,372.353a10.635,10.635,0,0,1-8.763,4.785h-14.3l-.094-.076L58.888,339.1Z" transform="translate(-33.353 -339.098)"/><path class="d" d="M162.831,370.544,137.484,408.23H117.109l22.526-33.1a10.981,10.981,0,0,1,9.048-4.941h13.7Z" transform="translate(-88.579 -358.777)"/></g><g transform="translate(92.993 114.156)"><path class="d" d="M352.14,339.1l-22.632,33.256a10.635,10.635,0,0,1-8.764,4.785h-14.3l-.094-.076L331.888,339.1Z" transform="translate(-306.353 -339.098)"/><path class="d" d="M435.831,370.544,410.484,408.23H390.109l22.526-33.1a10.981,10.981,0,0,1,9.048-4.941h13.7Z" transform="translate(-361.579 -358.777)"/></g><g transform="translate(154.989 75.982)"><path class="d" d="M534.14,235.1l-22.632,33.255a10.635,10.635,0,0,1-8.764,4.785h-14.3l-.094-.076L513.888,235.1Z" transform="translate(-488.353 -235.098)"/><path class="d" d="M617.831,266.544,592.484,304.23H572.109l22.526-33.1a10.981,10.981,0,0,1,9.048-4.941h13.7Z" transform="translate(-543.579 -254.777)"/></g><g transform="translate(219.028 38.174)"><path class="d" d="M722.14,132.1l-22.632,33.255a10.635,10.635,0,0,1-8.763,4.785h-14.3l-.094-.076L701.888,132.1Z" transform="translate(-676.353 -132.098)"/><path class="d" d="M805.831,163.544,780.484,201.23H760.109l22.526-33.1a10.981,10.981,0,0,1,9.048-4.941h13.7Z" transform="translate(-731.579 -151.777)"/></g><g transform="translate(281.023)"><path class="d" d="M904.14,28.1,881.508,61.353a10.635,10.635,0,0,1-8.764,4.785h-14.3l-.094-.076L883.888,28.1Z" transform="translate(-858.353 -28.098)"/><path class="d" d="M987.831,59.544,962.484,97.23H942.109l22.526-33.1a10.981,10.981,0,0,1,9.048-4.941h13.7Z" transform="translate(-913.579 -47.777)"/></g><g transform="translate(374.017)"><path class="d" d="M1177.14,28.1l-22.632,33.255a10.635,10.635,0,0,1-8.763,4.785h-14.3l-.094-.076L1156.889,28.1Z" transform="translate(-1131.353 -28.098)"/><path class="d" d="M1260.831,59.544,1235.484,97.23h-20.375l22.526-33.1a10.981,10.981,0,0,1,9.048-4.941h13.7Z" transform="translate(-1186.579 -47.777)"/></g><g transform="translate(203.699 114.156)"><path class="d" d="M677.14,339.1l-22.632,33.256a10.635,10.635,0,0,1-8.764,4.785h-14.3l-.094-.076L656.888,339.1Z" transform="translate(-631.353 -339.098)"/><path class="d" d="M760.831,370.544,735.484,408.23H715.109l22.526-33.1a10.982,10.982,0,0,1,9.048-4.941h13.7Z" transform="translate(-686.579 -358.777)"/></g><g transform="translate(296.693 114.156)"><path class="d" d="M950.14,339.1l-22.632,33.256a10.636,10.636,0,0,1-8.763,4.785h-14.3l-.094-.076L929.888,339.1Z" transform="translate(-904.353 -339.098)"/><path class="d" d="M1033.831,370.544l-25.347,37.686H988.109l22.526-33.1a10.982,10.982,0,0,1,9.048-4.941h13.7Z" transform="translate(-959.579 -358.777)"/></g><g transform="translate(358.688 75.982)"><path class="d" d="M1132.14,235.1l-22.631,33.255a10.635,10.635,0,0,1-8.763,4.785h-14.3l-.094-.076,25.535-37.965Z" transform="translate(-1086.353 -235.098)"/><path class="d" d="M1215.831,266.544l-25.347,37.686h-20.375l22.526-33.1a10.982,10.982,0,0,1,9.048-4.941h13.7Z" transform="translate(-1141.579 -254.777)"/></g><g transform="translate(312.021 38.174)"><path class="e" d="M995.14,132.1l-22.632,33.255a10.635,10.635,0,0,1-8.763,4.785h-14.3l-.094-.076L974.888,132.1Z" transform="translate(-949.353 -132.098)"/><path class="e" d="M1078.831,163.544l-25.347,37.686h-20.375l22.526-33.1a10.981,10.981,0,0,1,9.048-4.941h13.695Z" transform="translate(-1004.579 -151.777)"/></g><g transform="translate(265.695 75.982)"><path class="e" d="M859.14,235.1l-22.632,33.255a10.635,10.635,0,0,1-8.763,4.785h-14.3l-.094-.076L838.888,235.1Z" transform="translate(-813.353 -235.098)"/><path class="e" d="M942.831,266.544,917.484,304.23H897.109l22.526-33.1a10.981,10.981,0,0,1,9.048-4.941h13.7Z" transform="translate(-868.579 -254.777)"/></g><g transform="translate(108.322 38.174)"><path class="e" d="M397.14,132.1l-22.632,33.255a10.635,10.635,0,0,1-8.763,4.785h-14.3l-.094-.076L376.888,132.1Z" transform="translate(-351.353 -132.098)"/><path class="e" d="M480.831,163.544,455.484,201.23H435.109l22.526-33.1a10.981,10.981,0,0,1,9.048-4.941h13.7Z" transform="translate(-406.579 -151.777)"/></g><g transform="translate(61.995 75.982)"><path class="e" d="M261.14,235.1l-22.632,33.255a10.635,10.635,0,0,1-8.764,4.785h-14.3l-.094-.076L240.888,235.1Z" transform="translate(-215.353 -235.098)"/><path class="e" d="M344.831,266.544,319.484,304.23H299.109l22.526-33.1a10.981,10.981,0,0,1,9.048-4.941h13.7Z" transform="translate(-270.579 -254.777)"/></g></g></g></svg>