<svg xmlns="http://www.w3.org/2000/svg" width="28.126" height="28.126" viewBox="0 0 28.126 28.126"><defs><style>.a{fill:#e1d5ff;}.b{fill:#2e1963;}</style></defs><g transform="translate(0)"><path class="a" d="M14.063,0A14.063,14.063,0,1,1,0,14.063,14.063,14.063,0,0,1,14.063,0Z" transform="translate(0 0)"/><path class="b" d="M9.248,7.451a1.8,1.8,0,1,0,1.8,1.8A1.8,1.8,0,0,0,9.248,7.451Zm7.2-1.776a4.733,4.733,0,0,0-.3-1.638A2.9,2.9,0,0,0,14.46,2.355a4.733,4.733,0,0,0-1.638-.3C11.887,2,11.611,2,9.248,2S6.61,2,5.675,2.051a4.733,4.733,0,0,0-1.638.3A2.9,2.9,0,0,0,2.355,4.037a4.733,4.733,0,0,0-.3,1.638C2,6.61,2,6.885,2,9.248s0,2.638.051,3.573a4.972,4.972,0,0,0,.3,1.645,2.856,2.856,0,0,0,.66,1.015,2.82,2.82,0,0,0,1.022.66,4.733,4.733,0,0,0,1.638.3c.935.051,1.21.051,3.573.051s2.638,0,3.573-.051a4.733,4.733,0,0,0,1.638-.3,2.82,2.82,0,0,0,1.022-.66,2.856,2.856,0,0,0,.66-1.015,4.784,4.784,0,0,0,.3-1.645c.051-.935.051-1.21.051-3.573s0-2.638-.051-3.573Zm-1.841,5.8a4.153,4.153,0,0,1-.283,1.3,2.8,2.8,0,0,1-1.544,1.544,4.153,4.153,0,0,1-1.312.254H7.03a4.153,4.153,0,0,1-1.312-.254,2.7,2.7,0,0,1-1.544-1.544,3.979,3.979,0,0,1-.246-1.312V7.03a3.979,3.979,0,0,1,.246-1.312,2.544,2.544,0,0,1,.623-.95,2.6,2.6,0,0,1,.921-.594A4.153,4.153,0,0,1,7.03,3.921h4.436a4.153,4.153,0,0,1,1.312.254,2.7,2.7,0,0,1,1.544,1.544,4.153,4.153,0,0,1,.254,1.312c0,.573,0,.725,0,2.218s.051,1.645.029,2.218Zm-1.16-5.393a1.725,1.725,0,0,0-1.022-1.022,2.9,2.9,0,0,0-1-.159H7.074a2.9,2.9,0,0,0-1,.188,1.725,1.725,0,0,0-1.022.986,3.1,3.1,0,0,0-.152,1v4.349a3.1,3.1,0,0,0,.188,1A1.725,1.725,0,0,0,6.11,13.445a3.1,3.1,0,0,0,.964.188h4.349a2.9,2.9,0,0,0,1-.188,1.725,1.725,0,0,0,1.022-1.022,2.9,2.9,0,0,0,.188-1V7.074a2.74,2.74,0,0,0-.188-1Zm-4.2,5.936A2.762,2.762,0,0,1,6.487,9.248h0a2.769,2.769,0,1,1,2.762,2.769Zm2.9-4.994a.652.652,0,0,1,0-1.3h0a.652.652,0,0,1,0,1.3Z" transform="translate(4.561 4.455)"/></g></svg>