<svg xmlns="http://www.w3.org/2000/svg" width="28.733" height="28.733" viewBox="0 0 28.733 28.733"><defs><style>.a{fill:#e1d5ff;}.b{fill:#ece5ff;}.c{fill:#cabcef;}.d{fill:#2e1963;}</style></defs><path class="a" d="M28.733,14.367A14.367,14.367,0,1,1,14.367,0,14.363,14.363,0,0,1,28.733,14.367Z" transform="translate(0 0)"/><path class="b" d="M83.916,98.416c-.467,0-.383-.18-.551-.623L82,93.292,90.476,88l.994.263-.826,2.251Z" transform="translate(-72.183 -77.464)"/><path class="c" d="M98,137.148a.936.936,0,0,0,.718-.359c.311-.3,4.31-4.19,4.31-4.19l-2.454-.6L98.3,133.437l-.3,3.592Z" transform="translate(-86.267 -116.197)"/><path class="d" d="M55.041,80.815l5.795,4.274c.658.359,1.137.18,1.3-.611L64.5,73.369c.239-.97-.371-1.4-1.006-1.113l-13.84,5.34c-.946.383-.934.91-.168,1.137l3.556,1.113,8.225-5.184c.383-.239.742-.108.455.156Z" transform="translate(-43.069 -63.527)"/></svg>