<svg xmlns="http://www.w3.org/2000/svg" width="28.126" height="28.126" viewBox="0 0 28.126 28.126"><defs><style>.a{fill:#e1d5ff;}.b{fill:#2e1963;}</style></defs><g transform="translate(0)"><path class="a" d="M14.063,0A14.063,14.063,0,1,1,0,14.063,14.063,14.063,0,0,1,14.063,0Z" transform="translate(0 0)"/><g transform="translate(6.293 8.53)"><path class="b" d="M41.487,35.6a6.707,6.707,0,0,1-1.931.529,3.371,3.371,0,0,0,1.478-1.859,6.729,6.729,0,0,1-2.135.815,3.364,3.364,0,0,0-5.728,3.066,9.542,9.542,0,0,1-6.929-3.513,3.365,3.365,0,0,0,1.04,4.488,3.338,3.338,0,0,1-1.522-.421c0,.014,0,.029,0,.043a3.363,3.363,0,0,0,2.7,3.3,3.374,3.374,0,0,1-1.518.058,3.365,3.365,0,0,0,3.14,2.334A6.786,6.786,0,0,1,25.1,45.833a9.559,9.559,0,0,0,14.716-8.054c0-.146,0-.291-.01-.435a6.817,6.817,0,0,0,1.678-1.74Z" transform="translate(-25.103 -34.028)"/></g></g></svg>